<svg xmlns="http://www.w3.org/2000/svg" viewBox="0 0 900 420" width="900" height="420">
<defs><linearGradient id="tbg" x1="0%" y1="0%" x2="0%" y2="100%">
<stop offset="0%" stop-color="#0d1117"/><stop offset="100%" stop-color="#161b22"/>
</linearGradient></defs>
<rect width="900" height="420" rx="12" fill="url(#tbg)"/>
<text x="450.0" y="28" text-anchor="middle" fill="#e6edf3" font-size="16" font-weight="bold">Awesome Cursor Rules 收录趋势</text>
<text x="450.0" y="46" text-anchor="middle" fill="#8b949e" font-size="12">总收录 873 · 累计新增 873 · Stars 1,349,521</text>
<text x="62" y="340.0" text-anchor="end" fill="#8b949e" font-size="11" dominant-baseline="middle">0</text>
<line x1="70" y1="340.0" x2="870" y2="340.0" stroke="#21262d" stroke-dasharray="4 4"/>
<text x="62" y="268.8" text-anchor="end" fill="#8b949e" font-size="11" dominant-baseline="middle">218</text>
<line x1="70" y1="268.8" x2="870" y2="268.8" stroke="#21262d" stroke-dasharray="4 4"/>
<text x="62" y="197.7" text-anchor="end" fill="#8b949e" font-size="11" dominant-baseline="middle">436</text>
<line x1="70" y1="197.7" x2="870" y2="197.7" stroke="#21262d" stroke-dasharray="4 4"/>
<text x="62" y="126.5" text-anchor="end" fill="#8b949e" font-size="11" dominant-baseline="middle">654</text>
<line x1="70" y1="126.5" x2="870" y2="126.5" stroke="#21262d" stroke-dasharray="4 4"/>
<text x="62" y="55.0" text-anchor="end" fill="#8b949e" font-size="11" dominant-baseline="middle">873</text>
<line x1="70" y1="55.0" x2="870" y2="55.0" stroke="#21262d" stroke-dasharray="4 4"/>

<line x1="70" y1="55" x2="70" y2="340" stroke="#30363d"/>
<line x1="70" y1="340" x2="870" y2="340" stroke="#30363d"/>
<path d="M70.0,78.2 L184.3,74.6 L298.6,72.3 L412.9,69.4 L527.1,63.5 L641.4,59.9 L755.7,57.9 L870.0,55.0 L870.0,340 L70.0,340 Z" fill="#58a6ff" opacity="0.12"/>
<polyline points="70.0,78.2 184.3,74.6 298.6,72.3 412.9,69.4 527.1,63.5 641.4,59.9 755.7,57.9 870.0,55.0" fill="none" stroke="#58a6ff" stroke-width="2.5" stroke-linecap="round" stroke-linejoin="round"/>
<circle cx="70.0" cy="78.2" r="3" fill="#58a6ff" stroke="#0d1117" stroke-width="1.5"/>
<circle cx="184.3" cy="74.6" r="3" fill="#58a6ff" stroke="#0d1117" stroke-width="1.5"/>
<circle cx="298.6" cy="72.3" r="3" fill="#58a6ff" stroke="#0d1117" stroke-width="1.5"/>
<circle cx="412.9" cy="69.4" r="3" fill="#58a6ff" stroke="#0d1117" stroke-width="1.5"/>
<circle cx="527.1" cy="63.5" r="3" fill="#58a6ff" stroke="#0d1117" stroke-width="1.5"/>
<circle cx="641.4" cy="59.9" r="3" fill="#58a6ff" stroke="#0d1117" stroke-width="1.5"/>
<circle cx="755.7" cy="57.9" r="3" fill="#58a6ff" stroke="#0d1117" stroke-width="1.5"/>
<circle cx="870.0" cy="55.0" r="3" fill="#58a6ff" stroke="#0d1117" stroke-width="1.5"/>
<path d="M70.0,55.0 L184.3,336.1 L298.6,337.5 L412.9,336.8 L527.1,333.6 L641.4,336.1 L755.7,337.9 L870.0,336.8 L870.0,340 L70.0,340 Z" fill="#3fb950" opacity="0.12"/>
<polyline points="70.0,55.0 184.3,336.1 298.6,337.5 412.9,336.8 527.1,333.6 641.4,336.1 755.7,337.9 870.0,336.8" fill="none" stroke="#3fb950" stroke-width="2.5" stroke-linecap="round" stroke-linejoin="round"/>
<circle cx="70.0" cy="55.0" r="3" fill="#3fb950" stroke="#0d1117" stroke-width="1.5"/>
<circle cx="184.3" cy="336.1" r="3" fill="#3fb950" stroke="#0d1117" stroke-width="1.5"/>
<circle cx="298.6" cy="337.5" r="3" fill="#3fb950" stroke="#0d1117" stroke-width="1.5"/>
<circle cx="412.9" cy="336.8" r="3" fill="#3fb950" stroke="#0d1117" stroke-width="1.5"/>
<circle cx="527.1" cy="333.6" r="3" fill="#3fb950" stroke="#0d1117" stroke-width="1.5"/>
<circle cx="641.4" cy="336.1" r="3" fill="#3fb950" stroke="#0d1117" stroke-width="1.5"/>
<circle cx="755.7" cy="337.9" r="3" fill="#3fb950" stroke="#0d1117" stroke-width="1.5"/>
<circle cx="870.0" cy="336.8" r="3" fill="#3fb950" stroke="#0d1117" stroke-width="1.5"/>
<text x="70.0" y="390" text-anchor="middle" fill="#8b949e" font-size="11">03-01</text>
<text x="184.3" y="390" text-anchor="middle" fill="#8b949e" font-size="11">03-02</text>
<text x="298.6" y="390" text-anchor="middle" fill="#8b949e" font-size="11">03-03</text>
<text x="412.9" y="390" text-anchor="middle" fill="#8b949e" font-size="11">03-04</text>
<text x="527.1" y="390" text-anchor="middle" fill="#8b949e" font-size="11">03-05</text>
<text x="641.4" y="390" text-anchor="middle" fill="#8b949e" font-size="11">03-06</text>
<text x="755.7" y="390" text-anchor="middle" fill="#8b949e" font-size="11">03-07</text>
<text x="870.0" y="390" text-anchor="middle" fill="#8b949e" font-size="11">03-08</text>

<rect x="640" y="402" width="12" height="12" rx="2" fill="#58a6ff"/>
<text x="656" y="412" fill="#8b949e" font-size="11">总数</text>
<rect x="750" y="402" width="12" height="12" rx="2" fill="#3fb950"/>
<text x="766" y="412" fill="#8b949e" font-size="11">每日新增</text>
</svg>