<svg xmlns="http://www.w3.org/2000/svg" xmlns:xlink="http://www.w3.org/1999/xlink" viewBox="0 0 718 718" width="718" height="718">
<rect width="718" height="718" rx="10" fill="#ffffff"/>
<text x="359.0" y="24" text-anchor="middle" fill="#000000" font-size="14" font-weight="bold">Awesome Cursor Rules</text>
<text x="359.0" y="42" text-anchor="middle" fill="#333333" font-size="10">每日热门 (2026-03-02)</text>
<rect x="24" y="56" width="670" height="32" fill="#f6f8fa" rx="4"/>
<text x="44.0" y="78" text-anchor="middle" fill="#333333" font-size="11">#</text>
<text x="174.0" y="78" text-anchor="middle" fill="#333333" font-size="11">项目</text>
<text x="324.0" y="78" text-anchor="middle" fill="#333333" font-size="11">⭐</text>
<text x="396.0" y="78" text-anchor="middle" fill="#333333" font-size="11">📈 日增</text>
<text x="561.0" y="78" text-anchor="middle" fill="#333333" font-size="11">描述</text>
<line x1="24" y1="88" x2="694" y2="88" stroke="#d0d7de" stroke-width="1"/>
<text x="44.0" y="104" text-anchor="middle" fill="#000000" font-size="11">1</text>
<text x="174.0" y="104" text-anchor="middle" fill="#000000" font-size="11">x1xhlol/system-prompts-an...</text>
<text x="324.0" y="104" text-anchor="middle" fill="#000000" font-size="11">126,732</text>
<text x="396.0" y="104" text-anchor="middle" fill="#000000" font-size="11">+109</text>
<text x="561.0" y="104" text-anchor="middle" fill="#000000" font-size="11">完整增强代码,克劳德代码,克鲁利,代</text>
<text x="561.0" y="118" text-anchor="middle" fill="#000000" font-size="11">码Buddy,彗星,课程,德文AI,</text>
<line x1="24" y1="138" x2="694" y2="138" stroke="#d0d7de" stroke-width="0.5"/>
<text x="44.0" y="150" text-anchor="middle" fill="#000000" font-size="11">2</text>
<text x="174.0" y="150" text-anchor="middle" fill="#000000" font-size="11">liyupi/ai-guide</text>
<text x="324.0" y="150" text-anchor="middle" fill="#000000" font-size="11">8,511</text>
<text x="396.0" y="150" text-anchor="middle" fill="#000000" font-size="11">+41</text>
<text x="561.0" y="150" text-anchor="middle" fill="#000000" font-size="11">程序员鱼皮的AI 资源大全 +</text>
<text x="561.0" y="164" text-anchor="middle" fill="#000000" font-size="11">振动编码 零基础教程,分享大模型选择指南</text>
<line x1="24" y1="184" x2="694" y2="184" stroke="#d0d7de" stroke-width="0.5"/>
<text x="44.0" y="196" text-anchor="middle" fill="#000000" font-size="11">3</text>
<text x="174.0" y="196" text-anchor="middle" fill="#000000" font-size="11">github/awesome-copilot</text>
<text x="324.0" y="196" text-anchor="middle" fill="#000000" font-size="11">23,031</text>
<text x="396.0" y="196" text-anchor="middle" fill="#000000" font-size="11">+22</text>
<text x="561.0" y="196" text-anchor="middle" fill="#000000" font-size="11">社区提供指令,提示和配置,帮助您充分</text>
<text x="561.0" y="210" text-anchor="middle" fill="#000000" font-size="11">利用GitHub Copilot.</text>
<line x1="24" y1="230" x2="694" y2="230" stroke="#d0d7de" stroke-width="0.5"/>
<text x="44.0" y="242" text-anchor="middle" fill="#000000" font-size="11">4</text>
<text x="174.0" y="242" text-anchor="middle" fill="#000000" font-size="11">mco-org/mco</text>
<text x="324.0" y="242" text-anchor="middle" fill="#000000" font-size="11">76</text>
<text x="396.0" y="242" text-anchor="middle" fill="#000000" font-size="11">+19</text>
<text x="561.0" y="242" text-anchor="middle" fill="#000000" font-size="11">编程AI编程代理.任何提示.任何代理</text>
<text x="561.0" y="256" text-anchor="middle" fill="#000000" font-size="11">.任何IDE. 克劳德代码,Code</text>
<line x1="24" y1="276" x2="694" y2="276" stroke="#d0d7de" stroke-width="0.5"/>
<text x="44.0" y="288" text-anchor="middle" fill="#000000" font-size="11">5</text>
<text x="174.0" y="288" text-anchor="middle" fill="#000000" font-size="11">Piebald-AI/claude-code-sy...</text>
<text x="324.0" y="288" text-anchor="middle" fill="#000000" font-size="11">5,083</text>
<text x="396.0" y="288" text-anchor="middle" fill="#000000" font-size="11">+15</text>
<text x="561.0" y="288" text-anchor="middle" fill="#000000" font-size="11">所有部分的CLAUDE</text>
<text x="561.0" y="302" text-anchor="middle" fill="#000000" font-size="11">Code系统提示,18个构建工具描述,子代理提示</text>
<line x1="24" y1="322" x2="694" y2="322" stroke="#d0d7de" stroke-width="0.5"/>
<text x="44.0" y="334" text-anchor="middle" fill="#000000" font-size="11">6</text>
<text x="174.0" y="334" text-anchor="middle" fill="#000000" font-size="11">agentsmd/agents.md</text>
<text x="324.0" y="334" text-anchor="middle" fill="#000000" font-size="11">18,322</text>
<text x="396.0" y="334" text-anchor="middle" fill="#000000" font-size="11">+12</text>
<text x="561.0" y="334" text-anchor="middle" fill="#000000" font-size="11">简单,开放的指导编码代理格式</text>
<line x1="24" y1="368" x2="694" y2="368" stroke="#d0d7de" stroke-width="0.5"/>
<text x="44.0" y="380" text-anchor="middle" fill="#000000" font-size="11">7</text>
<text x="174.0" y="380" text-anchor="middle" fill="#000000" font-size="11">gadievron/raptor</text>
<text x="324.0" y="380" text-anchor="middle" fill="#000000" font-size="11">1,282</text>
<text x="396.0" y="380" text-anchor="middle" fill="#000000" font-size="11">+10</text>
<text x="561.0" y="380" text-anchor="middle" fill="#000000" font-size="11">通过使用Claude.md,创建规则</text>
<text x="561.0" y="394" text-anchor="middle" fill="#000000" font-size="11">,子代理和技能,并调整安全工具使用,</text>
<line x1="24" y1="414" x2="694" y2="414" stroke="#d0d7de" stroke-width="0.5"/>
<text x="44.0" y="426" text-anchor="middle" fill="#000000" font-size="11">8</text>
<text x="174.0" y="426" text-anchor="middle" fill="#000000" font-size="11">PatrickJS/awesome-cursorr...</text>
<text x="324.0" y="426" text-anchor="middle" fill="#000000" font-size="11">38,153</text>
<text x="396.0" y="426" text-anchor="middle" fill="#000000" font-size="11">+6</text>
<text x="561.0" y="426" text-anchor="middle" fill="#000000" font-size="11"> 通过定制规则和行为来增强Curso</text>
<text x="561.0" y="440" text-anchor="middle" fill="#000000" font-size="11">r AI编辑体验的配置文件</text>
<line x1="24" y1="460" x2="694" y2="460" stroke="#d0d7de" stroke-width="0.5"/>
<text x="44.0" y="472" text-anchor="middle" fill="#000000" font-size="11">9</text>
<text x="174.0" y="472" text-anchor="middle" fill="#000000" font-size="11">TheDecipherist/claude-cod...</text>
<text x="324.0" y="472" text-anchor="middle" fill="#000000" font-size="11">412</text>
<text x="396.0" y="472" text-anchor="middle" fill="#000000" font-size="11">+6</text>
<text x="561.0" y="472" text-anchor="middle" fill="#000000" font-size="11">克劳德代码的完整指南:CLAUDE.</text>
<text x="561.0" y="486" text-anchor="middle" fill="#000000" font-size="11">md,,技能,MCP服务器和命令</text>
<line x1="24" y1="506" x2="694" y2="506" stroke="#d0d7de" stroke-width="0.5"/>
<text x="44.0" y="518" text-anchor="middle" fill="#000000" font-size="11">10</text>
<text x="174.0" y="518" text-anchor="middle" fill="#000000" font-size="11">enulus/OpenPackage</text>
<text x="324.0" y="518" text-anchor="middle" fill="#000000" font-size="11">383</text>
<text x="396.0" y="518" text-anchor="middle" fill="#000000" font-size="11">+5</text>
<text x="561.0" y="518" text-anchor="middle" fill="#000000" font-size="11">开放,通用,编码代理技能,代理,规则</text>
<text x="561.0" y="532" text-anchor="middle" fill="#000000" font-size="11">,命令组织者和包管理者.</text>
<line x1="24" y1="552" x2="694" y2="552" stroke="#d0d7de" stroke-width="0.5"/>
<a xlink:href="https://github.com/lllray/awesome-cursor-rules"><text x="694" y="708" text-anchor="end" fill="#57606a" font-size="10">github.com/lllray/awesome-cursor-...</text></a>
</svg>