<svg xmlns="http://www.w3.org/2000/svg" xmlns:xlink="http://www.w3.org/1999/xlink" viewBox="0 0 718 718" width="718" height="718">
<rect width="718" height="718" rx="10" fill="#ffffff"/>
<text x="359.0" y="28" text-anchor="middle" fill="#000000" font-size="14" font-weight="bold">🔥 每日热门 (2026-03-01)</text>
<rect x="24" y="48" width="670" height="32" fill="#f6f8fa" rx="4"/>
<text x="44.0" y="70" text-anchor="middle" fill="#333333" font-size="11">#</text>
<text x="174.0" y="70" text-anchor="middle" fill="#333333" font-size="11">项目</text>
<text x="324.0" y="70" text-anchor="middle" fill="#333333" font-size="11">⭐</text>
<text x="396.0" y="70" text-anchor="middle" fill="#333333" font-size="11">📈 日增</text>
<text x="561.0" y="70" text-anchor="middle" fill="#333333" font-size="11">描述</text>
<line x1="24" y1="80" x2="694" y2="80" stroke="#d0d7de" stroke-width="1"/>
<text x="44.0" y="96" text-anchor="middle" fill="#000000" font-size="11">1</text>
<text x="174.0" y="96" text-anchor="middle" fill="#000000" font-size="11">x1xhlol/system-prompts-an...</text>
<text x="324.0" y="96" text-anchor="middle" fill="#000000" font-size="11">126,732</text>
<text x="396.0" y="96" text-anchor="middle" fill="#000000" font-size="11">+109</text>
<text x="561.0" y="96" text-anchor="middle" fill="#000000" font-size="11">完整增强代码,克劳德代码,克鲁利,代</text>
<text x="561.0" y="110" text-anchor="middle" fill="#000000" font-size="11">码Buddy,彗星,课程,德文AI,</text>
<line x1="24" y1="130" x2="694" y2="130" stroke="#d0d7de" stroke-width="0.5"/>
<text x="44.0" y="142" text-anchor="middle" fill="#000000" font-size="11">2</text>
<text x="174.0" y="142" text-anchor="middle" fill="#000000" font-size="11">liyupi/ai-guide</text>
<text x="324.0" y="142" text-anchor="middle" fill="#000000" font-size="11">8,511</text>
<text x="396.0" y="142" text-anchor="middle" fill="#000000" font-size="11">+41</text>
<text x="561.0" y="142" text-anchor="middle" fill="#000000" font-size="11">程序员鱼皮的AI 资源大全 +</text>
<text x="561.0" y="156" text-anchor="middle" fill="#000000" font-size="11">振动编码 零基础教程,分享大模型选择指南</text>
<line x1="24" y1="176" x2="694" y2="176" stroke="#d0d7de" stroke-width="0.5"/>
<text x="44.0" y="188" text-anchor="middle" fill="#000000" font-size="11">3</text>
<text x="174.0" y="188" text-anchor="middle" fill="#000000" font-size="11">github/awesome-copilot</text>
<text x="324.0" y="188" text-anchor="middle" fill="#000000" font-size="11">23,031</text>
<text x="396.0" y="188" text-anchor="middle" fill="#000000" font-size="11">+22</text>
<text x="561.0" y="188" text-anchor="middle" fill="#000000" font-size="11">社区提供指令,提示和配置,帮助您充分</text>
<text x="561.0" y="202" text-anchor="middle" fill="#000000" font-size="11">利用GitHub Copilot.</text>
<line x1="24" y1="222" x2="694" y2="222" stroke="#d0d7de" stroke-width="0.5"/>
<text x="44.0" y="234" text-anchor="middle" fill="#000000" font-size="11">4</text>
<text x="174.0" y="234" text-anchor="middle" fill="#000000" font-size="11">mco-org/mco</text>
<text x="324.0" y="234" text-anchor="middle" fill="#000000" font-size="11">76</text>
<text x="396.0" y="234" text-anchor="middle" fill="#000000" font-size="11">+19</text>
<text x="561.0" y="234" text-anchor="middle" fill="#000000" font-size="11">编程AI编程代理.任何提示.任何代理</text>
<text x="561.0" y="248" text-anchor="middle" fill="#000000" font-size="11">.任何IDE. 克劳德代码,Code</text>
<line x1="24" y1="268" x2="694" y2="268" stroke="#d0d7de" stroke-width="0.5"/>
<text x="44.0" y="280" text-anchor="middle" fill="#000000" font-size="11">5</text>
<text x="174.0" y="280" text-anchor="middle" fill="#000000" font-size="11">Piebald-AI/claude-code-sy...</text>
<text x="324.0" y="280" text-anchor="middle" fill="#000000" font-size="11">5,083</text>
<text x="396.0" y="280" text-anchor="middle" fill="#000000" font-size="11">+15</text>
<text x="561.0" y="280" text-anchor="middle" fill="#000000" font-size="11">所有部分的CLAUDE</text>
<text x="561.0" y="294" text-anchor="middle" fill="#000000" font-size="11">Code系统提示,18个构建工具描述,子代理提示</text>
<line x1="24" y1="314" x2="694" y2="314" stroke="#d0d7de" stroke-width="0.5"/>
<text x="44.0" y="326" text-anchor="middle" fill="#000000" font-size="11">6</text>
<text x="174.0" y="326" text-anchor="middle" fill="#000000" font-size="11">agentsmd/agents.md</text>
<text x="324.0" y="326" text-anchor="middle" fill="#000000" font-size="11">18,322</text>
<text x="396.0" y="326" text-anchor="middle" fill="#000000" font-size="11">+12</text>
<text x="561.0" y="326" text-anchor="middle" fill="#000000" font-size="11">简单,开放的指导编码代理格式</text>
<line x1="24" y1="360" x2="694" y2="360" stroke="#d0d7de" stroke-width="0.5"/>
<text x="44.0" y="372" text-anchor="middle" fill="#000000" font-size="11">7</text>
<text x="174.0" y="372" text-anchor="middle" fill="#000000" font-size="11">gadievron/raptor</text>
<text x="324.0" y="372" text-anchor="middle" fill="#000000" font-size="11">1,282</text>
<text x="396.0" y="372" text-anchor="middle" fill="#000000" font-size="11">+10</text>
<text x="561.0" y="372" text-anchor="middle" fill="#000000" font-size="11">通过使用Claude.md,创建规则</text>
<text x="561.0" y="386" text-anchor="middle" fill="#000000" font-size="11">,子代理和技能,并调整安全工具使用,</text>
<line x1="24" y1="406" x2="694" y2="406" stroke="#d0d7de" stroke-width="0.5"/>
<text x="44.0" y="418" text-anchor="middle" fill="#000000" font-size="11">8</text>
<text x="174.0" y="418" text-anchor="middle" fill="#000000" font-size="11">PatrickJS/awesome-cursorr...</text>
<text x="324.0" y="418" text-anchor="middle" fill="#000000" font-size="11">38,153</text>
<text x="396.0" y="418" text-anchor="middle" fill="#000000" font-size="11">+6</text>
<text x="561.0" y="418" text-anchor="middle" fill="#000000" font-size="11"> 通过定制规则和行为来增强Curso</text>
<text x="561.0" y="432" text-anchor="middle" fill="#000000" font-size="11">r AI编辑体验的配置文件</text>
<line x1="24" y1="452" x2="694" y2="452" stroke="#d0d7de" stroke-width="0.5"/>
<text x="44.0" y="464" text-anchor="middle" fill="#000000" font-size="11">9</text>
<text x="174.0" y="464" text-anchor="middle" fill="#000000" font-size="11">TheDecipherist/claude-cod...</text>
<text x="324.0" y="464" text-anchor="middle" fill="#000000" font-size="11">412</text>
<text x="396.0" y="464" text-anchor="middle" fill="#000000" font-size="11">+6</text>
<text x="561.0" y="464" text-anchor="middle" fill="#000000" font-size="11">克劳德代码的完整指南:CLAUDE.</text>
<text x="561.0" y="478" text-anchor="middle" fill="#000000" font-size="11">md,,技能,MCP服务器和命令</text>
<line x1="24" y1="498" x2="694" y2="498" stroke="#d0d7de" stroke-width="0.5"/>
<text x="44.0" y="510" text-anchor="middle" fill="#000000" font-size="11">10</text>
<text x="174.0" y="510" text-anchor="middle" fill="#000000" font-size="11">enulus/OpenPackage</text>
<text x="324.0" y="510" text-anchor="middle" fill="#000000" font-size="11">383</text>
<text x="396.0" y="510" text-anchor="middle" fill="#000000" font-size="11">+5</text>
<text x="561.0" y="510" text-anchor="middle" fill="#000000" font-size="11">开放,通用,编码代理技能,代理,规则</text>
<text x="561.0" y="524" text-anchor="middle" fill="#000000" font-size="11">,命令组织者和包管理者.</text>
<line x1="24" y1="544" x2="694" y2="544" stroke="#d0d7de" stroke-width="0.5"/>
<a xlink:href="https://github.com/lllray/awesome-cursor-rules"><text x="694" y="708" text-anchor="end" fill="#57606a" font-size="10">github.com/lllray/awesome-cursor-...</text></a>
</svg>